<svg width="1280" height="640" viewBox="0 0 1280 640" fill="none" xmlns="http://www.w3.org/2000/svg">
<g clip-path="url(#clip0)">
<rect width="1280" height="640" fill="#080665"/>
<rect width="1280" height="640" fill="url(#paint0_linear)"/>
<rect width="1280" height="640" fill="url(#paint1_linear)"/>
<g opacity="0.5" filter="url(#filter0_i)">
<path d="M403.334 135.117L329.595 109.195C308.394 101.74 292.714 85.5649 287.656 65.9339L270.073 -2.34566C257.34 -51.7848 185.877 -66.8752 149.139 -27.8954L98.4032 25.9488C83.8224 41.4346 61.5225 49.5897 38.8047 47.7599L-40.2348 41.412C-97.4691 36.8148 -135.823 92.1049 -105.144 134.97L-62.7656 194.18C-50.582 211.202 -48.6687 232.425 -57.6635 250.927L-88.9252 315.287C-111.566 361.88 -63.8102 411.149 -8.11536 398.657L68.8129 381.398C90.9259 376.439 114.391 381.398 131.567 394.647L191.298 440.765C234.534 474.154 302.402 449.316 306.151 398.725L311.319 328.852C312.804 308.758 325.394 290.607 345 280.294L413.175 244.443C462.526 218.51 456.709 153.89 403.334 135.117Z" fill="url(#paint2_linear)"/>
</g>
<path opacity="0.5" d="M1541.5 97.3356L1454.53 66.3413C1429.53 57.4279 1411.04 38.0885 1405.07 14.6166L1384.33 -67.022C1369.32 -126.134 1285.03 -144.177 1241.7 -97.5706L1181.87 -33.1916C1164.67 -14.6761 1138.37 -4.92535 1111.58 -7.11319L1018.36 -14.7031C950.855 -20.1997 905.621 45.908 941.803 97.16L991.784 167.954C1006.15 188.306 1008.41 213.682 997.802 235.804L960.932 312.756C934.229 368.465 990.552 427.374 1056.24 412.437L1146.97 391.802C1173.05 385.873 1200.72 391.802 1220.98 407.643L1291.43 462.785C1342.42 502.706 1422.46 473.008 1426.88 412.518L1432.98 328.976C1434.73 304.95 1449.58 283.247 1472.7 270.917L1553.11 228.052C1611.31 197.044 1604.45 119.781 1541.5 97.3356Z" fill="url(#paint3_linear)"/>
<path d="M233.52 69.2L214.576 114H199.728L180.784 69.2H197.04L207.728 95.376L218.672 69.2H233.52ZM250.509 114.64C246.626 114.64 243.127 113.872 240.013 112.336C236.941 110.757 234.53 108.603 232.781 105.872C231.031 103.099 230.157 99.9627 230.157 96.464C230.157 92.9653 231.031 89.8507 232.781 87.12C234.53 84.3467 236.941 82.192 240.013 80.656C243.127 79.12 246.626 78.352 250.509 78.352C254.434 78.352 257.933 79.12 261.005 80.656C264.119 82.192 266.53 84.3467 268.237 87.12C269.986 89.8507 270.861 92.9653 270.861 96.464C270.861 99.9627 269.986 103.099 268.237 105.872C266.53 108.603 264.119 110.757 261.005 112.336C257.933 113.872 254.434 114.64 250.509 114.64ZM250.509 103.376C252.173 103.376 253.538 102.779 254.605 101.584C255.671 100.347 256.205 98.64 256.205 96.464C256.205 94.288 255.671 92.6027 254.605 91.408C253.538 90.2133 252.173 89.616 250.509 89.616C248.845 89.616 247.479 90.2133 246.413 91.408C245.346 92.6027 244.812 94.288 244.812 96.464C244.812 98.64 245.346 100.347 246.413 101.584C247.479 102.779 248.845 103.376 250.509 103.376ZM275.388 78.992H289.852V114H275.388V78.992ZM282.62 76.176C280.017 76.176 277.905 75.4933 276.284 74.128C274.705 72.72 273.916 70.9493 273.916 68.816C273.916 66.6827 274.705 64.9333 276.284 63.568C277.905 62.16 280.017 61.456 282.62 61.456C285.265 61.456 287.377 62.1173 288.956 63.44C290.534 64.7627 291.324 66.4693 291.324 68.56C291.324 70.7787 290.534 72.6133 288.956 74.064C287.377 75.472 285.265 76.176 282.62 76.176ZM315.079 114.64C311.111 114.64 307.548 113.872 304.391 112.336C301.276 110.8 298.823 108.645 297.031 105.872C295.281 103.099 294.407 99.9627 294.407 96.464C294.407 92.9653 295.281 89.8507 297.031 87.12C298.823 84.3467 301.276 82.192 304.391 80.656C307.548 79.12 311.111 78.352 315.079 78.352C319.345 78.352 322.993 79.2693 326.023 81.104C329.052 82.9387 331.143 85.4773 332.295 88.72L321.095 94.224C319.729 91.152 317.703 89.616 315.015 89.616C313.308 89.616 311.879 90.2133 310.727 91.408C309.617 92.6027 309.062 94.288 309.062 96.464C309.062 98.6827 309.617 100.389 310.727 101.584C311.879 102.779 313.308 103.376 315.015 103.376C317.703 103.376 319.729 101.84 321.095 98.768L332.295 104.272C331.143 107.515 329.052 110.053 326.023 111.888C322.993 113.723 319.345 114.64 315.079 114.64ZM372.573 96.464C372.573 96.6773 372.509 97.808 372.381 99.856H348.061C348.573 101.179 349.426 102.203 350.621 102.928C351.816 103.611 353.309 103.952 355.101 103.952C356.637 103.952 357.917 103.76 358.941 103.376C360.008 102.992 361.16 102.331 362.397 101.392L369.949 109.008C366.536 112.763 361.437 114.64 354.653 114.64C350.429 114.64 346.717 113.872 343.517 112.336C340.317 110.757 337.842 108.581 336.093 105.808C334.344 103.035 333.469 99.92 333.469 96.464C333.469 92.9653 334.322 89.8507 336.029 87.12C337.778 84.3467 340.146 82.192 343.133 80.656C346.162 79.12 349.554 78.352 353.309 78.352C356.85 78.352 360.072 79.056 362.973 80.464C365.917 81.872 368.242 83.9413 369.949 86.672C371.698 89.4027 372.573 92.6667 372.573 96.464ZM353.437 88.208C351.944 88.208 350.706 88.6133 349.725 89.424C348.744 90.2347 348.104 91.3867 347.805 92.88H359.069C358.77 91.4293 358.13 90.2987 357.149 89.488C356.168 88.6347 354.93 88.208 353.437 88.208ZM400.754 115.024C396.018 115.024 391.751 114.043 387.954 112.08C384.156 110.075 381.17 107.301 378.994 103.76C376.86 100.176 375.794 96.1227 375.794 91.6C375.794 87.0773 376.86 83.0453 378.994 79.504C381.17 75.92 384.156 73.1467 387.954 71.184C391.751 69.1787 396.018 68.176 400.754 68.176C405.106 68.176 408.988 68.944 412.402 70.48C415.815 72.016 418.631 74.2347 420.85 77.136L411.314 85.648C408.54 82.1493 405.276 80.4 401.522 80.4C398.364 80.4 395.826 81.424 393.906 83.472C391.986 85.4773 391.026 88.1867 391.026 91.6C391.026 95.0133 391.986 97.744 393.906 99.792C395.826 101.797 398.364 102.8 401.522 102.8C405.276 102.8 408.54 101.051 411.314 97.552L420.85 106.064C418.631 108.965 415.815 111.184 412.402 112.72C408.988 114.256 405.106 115.024 400.754 115.024ZM449.083 78.352C453.392 78.352 456.848 79.6533 459.451 82.256C462.096 84.8587 463.419 88.784 463.419 94.032V114H448.955V96.528C448.955 92.5173 447.525 90.512 444.667 90.512C443.045 90.512 441.723 91.088 440.699 92.24C439.717 93.3493 439.227 95.12 439.227 97.552V114H424.763V66.512H439.227V81.808C441.915 79.504 445.2 78.352 449.083 78.352ZM485.38 78.352C491.524 78.352 496.217 79.7387 499.46 82.512C502.703 85.2427 504.324 89.4667 504.324 95.184V114H490.884V109.392C489.22 112.891 485.913 114.64 480.964 114.64C478.191 114.64 475.823 114.171 473.86 113.232C471.94 112.251 470.468 110.949 469.444 109.328C468.463 107.664 467.972 105.808 467.972 103.76C467.972 100.304 469.295 97.68 471.94 95.888C474.585 94.096 478.596 93.2 483.972 93.2H489.796C489.327 90.4693 487.129 89.104 483.204 89.104C481.625 89.104 480.025 89.36 478.404 89.872C476.783 90.3413 475.396 91.0027 474.244 91.856L469.636 82.32C471.641 81.0827 474.052 80.1227 476.868 79.44C479.727 78.7147 482.564 78.352 485.38 78.352ZM485.316 105.936C486.34 105.936 487.257 105.659 488.068 105.104C488.879 104.549 489.476 103.717 489.86 102.608V100.176H486.276C483.332 100.176 481.86 101.157 481.86 103.12C481.86 103.931 482.159 104.613 482.756 105.168C483.396 105.68 484.249 105.936 485.316 105.936ZM536.367 112.784C534.191 114.021 531.226 114.64 527.471 114.64C522.564 114.64 518.788 113.467 516.143 111.12C513.498 108.731 512.175 105.168 512.175 100.432V91.472H507.375V80.912H512.175V71.12H526.639V80.912H533.807V91.472H526.639V100.304C526.639 101.371 526.916 102.203 527.471 102.8C528.026 103.397 528.751 103.696 529.647 103.696C530.884 103.696 531.972 103.376 532.911 102.736L536.367 112.784ZM562.029 69.2C566.167 69.2 569.773 69.8827 572.845 71.248C575.917 72.6133 578.285 74.576 579.949 77.136C581.613 79.696 582.445 82.6827 582.445 86.096C582.445 89.5093 581.613 92.496 579.949 95.056C578.285 97.616 575.917 99.5787 572.845 100.944C569.773 102.309 566.167 102.992 562.029 102.992H555.565V114H540.461V69.2H562.029ZM561.069 91.344C563.117 91.344 564.653 90.896 565.677 90C566.701 89.0613 567.213 87.76 567.213 86.096C567.213 84.432 566.701 83.152 565.677 82.256C564.653 81.3173 563.117 80.848 561.069 80.848H555.565V91.344H561.069ZM626.551 78.992L612.151 114.704C610.316 119.269 608.034 122.469 605.303 124.304C602.572 126.139 599.223 127.056 595.255 127.056C593.292 127.056 591.308 126.757 589.303 126.16C587.34 125.605 585.783 124.859 584.631 123.92L589.431 114C590.156 114.555 590.967 115.003 591.863 115.344C592.802 115.685 593.698 115.856 594.551 115.856C596.13 115.856 597.324 115.387 598.135 114.448L583.415 78.992H598.263L605.495 97.744L612.855 78.992H626.551ZM642.523 82.768C645.083 79.824 648.859 78.352 653.851 78.352V91.152C652.699 90.9813 651.632 90.896 650.651 90.896C645.701 90.896 643.227 93.4133 643.227 98.448V114H628.763V78.992H642.523V82.768ZM676.134 114.64C672.251 114.64 668.752 113.872 665.638 112.336C662.566 110.757 660.155 108.603 658.406 105.872C656.656 103.099 655.782 99.9627 655.782 96.464C655.782 92.9653 656.656 89.8507 658.406 87.12C660.155 84.3467 662.566 82.192 665.638 80.656C668.752 79.12 672.251 78.352 676.134 78.352C680.059 78.352 683.558 79.12 686.63 80.656C689.744 82.192 692.155 84.3467 693.862 87.12C695.611 89.8507 696.486 92.9653 696.486 96.464C696.486 99.9627 695.611 103.099 693.862 105.872C692.155 108.603 689.744 110.757 686.63 112.336C683.558 113.872 680.059 114.64 676.134 114.64ZM676.134 103.376C677.798 103.376 679.163 102.779 680.23 101.584C681.296 100.347 681.83 98.64 681.83 96.464C681.83 94.288 681.296 92.6027 680.23 91.408C679.163 90.2133 677.798 89.616 676.134 89.616C674.47 89.616 673.104 90.2133 672.038 91.408C670.971 92.6027 670.438 94.288 670.438 96.464C670.438 98.64 670.971 100.347 672.038 101.584C673.104 102.779 674.47 103.376 676.134 103.376ZM737.301 90.576C739.946 91.5573 741.994 92.9867 743.445 94.864C744.895 96.7413 745.621 99.0027 745.621 101.648C745.621 105.573 743.999 108.624 740.757 110.8C737.514 112.933 732.821 114 726.677 114H701.461V69.2H725.397C731.37 69.2 735.871 70.2667 738.901 72.4C741.973 74.5333 743.509 77.3707 743.509 80.912C743.509 83.0027 742.975 84.88 741.909 86.544C740.885 88.208 739.349 89.552 737.301 90.576ZM716.309 79.76V86.416H723.349C726.634 86.416 728.277 85.3067 728.277 83.088C728.277 80.8693 726.634 79.76 723.349 79.76H716.309ZM725.397 103.44C728.725 103.44 730.389 102.267 730.389 99.92C730.389 97.5733 728.725 96.4 725.397 96.4H716.309V103.44H725.397ZM769.009 114.64C765.126 114.64 761.627 113.872 758.513 112.336C755.441 110.757 753.03 108.603 751.281 105.872C749.531 103.099 748.657 99.9627 748.657 96.464C748.657 92.9653 749.531 89.8507 751.281 87.12C753.03 84.3467 755.441 82.192 758.513 80.656C761.627 79.12 765.126 78.352 769.009 78.352C772.934 78.352 776.433 79.12 779.505 80.656C782.619 82.192 785.03 84.3467 786.737 87.12C788.486 89.8507 789.361 92.9653 789.361 96.464C789.361 99.9627 788.486 103.099 786.737 105.872C785.03 108.603 782.619 110.757 779.505 112.336C776.433 113.872 772.934 114.64 769.009 114.64ZM769.009 103.376C770.673 103.376 772.038 102.779 773.105 101.584C774.171 100.347 774.705 98.64 774.705 96.464C774.705 94.288 774.171 92.6027 773.105 91.408C772.038 90.2133 770.673 89.616 769.009 89.616C767.345 89.616 765.979 90.2133 764.913 91.408C763.846 92.6027 763.312 94.288 763.312 96.464C763.312 98.64 763.846 100.347 764.913 101.584C765.979 102.779 767.345 103.376 769.009 103.376ZM819.68 112.784C817.504 114.021 814.538 114.64 810.784 114.64C805.877 114.64 802.101 113.467 799.456 111.12C796.81 108.731 795.488 105.168 795.488 100.432V91.472H790.688V80.912H795.488V71.12H809.952V80.912H817.12V91.472H809.952V100.304C809.952 101.371 810.229 102.203 810.784 102.8C811.338 103.397 812.064 103.696 812.96 103.696C814.197 103.696 815.285 103.376 816.224 102.736L819.68 112.784Z" fill="white"/>
<rect x="77" y="16" width="20" height="150" rx="10" fill="white"/>
<rect x="107" y="39" width="20" height="100" rx="10" fill="white"/>
<rect x="137" y="64" width="20" height="50" rx="10" fill="white"/>
<rect x="17" y="64" width="20" height="50" rx="10" fill="white"/>
<rect x="47" y="39" width="20" height="100" rx="10" fill="white"/>
<path d="M183.4 259.2V304H174.888L152.552 276.8V304H142.312V259.2H150.888L173.16 286.4V259.2H183.4ZM215.696 304.768C211.045 304.768 206.842 303.765 203.088 301.76C199.376 299.755 196.453 297.003 194.32 293.504C192.229 289.963 191.184 285.995 191.184 281.6C191.184 277.205 192.229 273.259 194.32 269.76C196.453 266.219 199.376 263.445 203.088 261.44C206.842 259.435 211.045 258.432 215.696 258.432C220.346 258.432 224.528 259.435 228.24 261.44C231.952 263.445 234.874 266.219 237.008 269.76C239.141 273.259 240.208 277.205 240.208 281.6C240.208 285.995 239.141 289.963 237.008 293.504C234.874 297.003 231.952 299.755 228.24 301.76C224.528 303.765 220.346 304.768 215.696 304.768ZM215.696 295.936C218.341 295.936 220.73 295.339 222.864 294.144C224.997 292.907 226.661 291.2 227.856 289.024C229.093 286.848 229.712 284.373 229.712 281.6C229.712 278.827 229.093 276.352 227.856 274.176C226.661 272 224.997 270.315 222.864 269.12C220.73 267.883 218.341 267.264 215.696 267.264C213.05 267.264 210.661 267.883 208.528 269.12C206.394 270.315 204.709 272 203.472 274.176C202.277 276.352 201.68 278.827 201.68 281.6C201.68 284.373 202.277 286.848 203.472 289.024C204.709 291.2 206.394 292.907 208.528 294.144C210.661 295.339 213.05 295.936 215.696 295.936ZM314.212 259.2L299.556 304H288.42L278.564 273.664L268.388 304H257.316L242.596 259.2H253.348L263.46 290.688L274.02 259.2H283.62L293.86 290.944L304.292 259.2H314.212ZM358.454 259.2C362.422 259.2 365.857 259.861 368.758 261.184C371.702 262.507 373.963 264.384 375.542 266.816C377.121 269.248 377.91 272.128 377.91 275.456C377.91 278.741 377.121 281.621 375.542 284.096C373.963 286.528 371.702 288.405 368.758 289.728C365.857 291.008 362.422 291.648 358.454 291.648H349.43V304H339.062V259.2H358.454ZM357.878 283.2C360.993 283.2 363.361 282.539 364.982 281.216C366.603 279.851 367.414 277.931 367.414 275.456C367.414 272.939 366.603 271.019 364.982 269.696C363.361 268.331 360.993 267.648 357.878 267.648H349.43V283.2H357.878ZM385.312 259.2H395.68V295.552H418.144V304H385.312V259.2ZM453.816 294.4H433.016L429.048 304H418.424L438.392 259.2H448.632L468.664 304H457.784L453.816 294.4ZM450.552 286.528L443.448 269.376L436.344 286.528H450.552ZM492.066 288.128V304H481.698V288L464.354 259.2H475.362L487.33 279.104L499.298 259.2H509.474L492.066 288.128ZM513.375 259.2H523.743V304H513.375V259.2ZM575.463 259.2V304H566.951L544.615 276.8V304H534.375V259.2H542.951L565.222 286.4V259.2H575.463ZM616.334 280.896H625.806V299.072C623.374 300.907 620.558 302.315 617.358 303.296C614.158 304.277 610.937 304.768 607.694 304.768C603.043 304.768 598.862 303.787 595.15 301.824C591.438 299.819 588.515 297.067 586.382 293.568C584.291 290.027 583.246 286.037 583.246 281.6C583.246 277.163 584.291 273.195 586.382 269.696C588.515 266.155 591.459 263.403 595.214 261.44C598.969 259.435 603.193 258.432 607.886 258.432C611.811 258.432 615.374 259.093 618.574 260.416C621.774 261.739 624.462 263.659 626.638 266.176L619.982 272.32C616.782 268.949 612.921 267.264 608.398 267.264C605.539 267.264 603.001 267.861 600.782 269.056C598.563 270.251 596.835 271.936 595.598 274.112C594.361 276.288 593.742 278.784 593.742 281.6C593.742 284.373 594.361 286.848 595.598 289.024C596.835 291.2 598.542 292.907 600.718 294.144C602.937 295.339 605.454 295.936 608.27 295.936C611.257 295.936 613.945 295.296 616.334 294.016V280.896ZM638.509 281.536C636.76 281.536 635.288 280.939 634.093 279.744C632.898 278.549 632.301 277.056 632.301 275.264C632.301 273.429 632.898 271.957 634.093 270.848C635.288 269.696 636.76 269.12 638.509 269.12C640.258 269.12 641.73 269.696 642.925 270.848C644.12 271.957 644.717 273.429 644.717 275.264C644.717 277.056 644.12 278.549 642.925 279.744C641.73 280.939 640.258 281.536 638.509 281.536ZM638.509 304.512C636.76 304.512 635.288 303.915 634.093 302.72C632.898 301.525 632.301 300.032 632.301 298.24C632.301 296.405 632.898 294.933 634.093 293.824C635.288 292.672 636.76 292.096 638.509 292.096C640.258 292.096 641.73 292.672 642.925 293.824C644.12 294.933 644.717 296.405 644.717 298.24C644.717 300.032 644.12 301.525 642.925 302.72C641.73 303.915 640.258 304.512 638.509 304.512Z" fill="white"/>
<text fill="white" xml:space="preserve" style="white-space: pre" font-family="monospace " font-size="64" letter-spacing="0em"><tspan x="200" y="400">{{video_title}}</tspan></text>
</g>
<defs>
<filter id="filter0_i" x="-116" y="-50" width="563" height="510" filterUnits="userSpaceOnUse" color-interpolation-filters="sRGB">
<feFlood flood-opacity="0" result="BackgroundImageFix"/>
<feBlend mode="normal" in="SourceGraphic" in2="BackgroundImageFix" result="shape"/>
<feColorMatrix in="SourceAlpha" type="matrix" values="0 0 0 0 0 0 0 0 0 0 0 0 0 0 0 0 0 0 127 0" result="hardAlpha"/>
<feOffset dy="4"/>
<feGaussianBlur stdDeviation="2"/>
<feComposite in2="hardAlpha" operator="arithmetic" k2="-1" k3="1"/>
<feColorMatrix type="matrix" values="0 0 0 0 0 0 0 0 0 0 0 0 0 0 0 0 0 0 0.25 0"/>
<feBlend mode="normal" in2="shape" result="effect1_innerShadow"/>
</filter>
<linearGradient id="paint0_linear" x1="640" y1="0" x2="640" y2="640" gradientUnits="userSpaceOnUse">
<stop stop-color="white" stop-opacity="0"/>
<stop offset="1" stop-color="white" stop-opacity="0"/>
</linearGradient>
<linearGradient id="paint1_linear" x1="1280" y1="-7.62939e-05" x2="1.90735e-05" y2="640" gradientUnits="userSpaceOnUse">
<stop stop-color="#0093C6"/>
<stop offset="1" stop-color="#F72585" stop-opacity="0"/>
</linearGradient>
<linearGradient id="paint2_linear" x1="165.5" y1="-50" x2="165.5" y2="456" gradientUnits="userSpaceOnUse">
<stop stop-color="#6930C3"/>
<stop offset="1" stop-color="#56CFE1" stop-opacity="0"/>
</linearGradient>
<linearGradient id="paint3_linear" x1="1261" y1="-124" x2="1261" y2="481" gradientUnits="userSpaceOnUse">
<stop stop-color="#A480CF"/>
<stop offset="1" stop-color="#56CFE1" stop-opacity="0"/>
</linearGradient>
<clipPath id="clip0">
<rect width="1280" height="640" fill="white"/>
</clipPath>
</defs>
</svg>
